<?xml-stylesheet type="text/css" href="../css/style.css" ?>

<svg id="svg" version="1.1" width="400" height="400" xmlns="https://www.w3.org/2000/svg" xmlns:xlink="https://www.w3.org/1999/xlink" style="display: block;"><g id="svgg"><path id="path0" d="M185.000 44.030 C 182.525 44.467,176.463 45.341,171.530 45.973 C 166.596 46.604,162.096 47.485,161.530 47.930 C 160.963 48.375,158.700 49.064,156.500 49.460 C 154.300 49.857,150.612 51.041,148.305 52.091 C 145.998 53.141,143.385 54.000,142.500 54.000 C 139.600 54.000,121.011 62.795,121.003 64.171 C 121.002 64.539,119.645 65.139,117.990 65.502 C 116.334 65.866,114.422 66.689,113.740 67.332 C 113.058 67.974,110.475 69.836,108.000 71.468 C 103.246 74.604,101.876 75.655,98.250 78.954 C 97.012 80.079,95.633 81.000,95.184 81.000 C 93.796 81.000,70.000 106.114,70.000 107.580 C 70.000 107.994,69.308 109.045,68.463 109.916 C 67.617 110.787,65.496 113.750,63.750 116.500 C 62.003 119.250,60.299 121.725,59.962 122.000 C 58.435 123.249,46.749 147.574,45.551 152.000 C 45.179 153.375,44.497 155.400,44.036 156.500 C 43.576 157.600,42.622 161.875,41.917 166.000 C 41.212 170.125,40.326 173.725,39.948 174.000 C 36.356 176.615,36.347 232.651,39.937 237.500 C 40.345 238.050,41.273 241.875,42.000 246.000 C 42.727 250.125,43.641 253.950,44.030 254.500 C 44.419 255.050,45.292 257.863,45.969 260.750 C 46.646 263.637,47.605 266.000,48.100 266.000 C 48.595 266.000,49.000 266.519,49.000 267.154 C 49.000 269.033,58.506 288.929,59.916 290.000 C 60.484 290.432,62.200 292.990,68.257 302.439 C 68.941 303.505,71.188 306.129,73.250 308.268 C 75.313 310.408,77.000 312.481,77.000 312.875 C 77.000 313.270,81.162 317.539,86.250 322.362 C 98.657 334.126,98.511 334.000,99.784 334.000 C 100.398 334.000,101.281 334.679,101.745 335.510 C 102.739 337.284,115.960 345.983,117.679 345.993 C 118.327 345.997,119.452 346.589,120.179 347.310 C 123.145 350.249,135.010 355.796,143.000 357.978 C 145.475 358.654,147.950 359.551,148.500 359.972 C 149.050 360.393,151.975 361.306,155.000 362.000 C 158.025 362.694,160.950 363.594,161.500 364.000 C 166.902 367.987,231.296 368.009,236.500 364.026 C 237.050 363.605,239.300 362.940,241.500 362.548 C 243.700 362.155,246.850 361.235,248.500 360.503 C 250.150 359.771,253.300 358.644,255.500 357.999 C 257.700 357.353,261.408 355.965,263.739 354.913 C 266.071 353.861,268.396 353.000,268.906 353.000 C 269.416 353.000,269.983 352.662,270.167 352.250 C 270.350 351.837,272.075 350.706,274.000 349.736 C 282.165 345.621,288.569 341.913,289.523 340.749 C 290.086 340.062,291.256 339.050,292.123 338.500 C 300.477 333.204,303.399 330.786,314.276 320.164 C 319.808 314.762,319.684 314.902,327.811 304.829 C 331.215 300.609,334.000 296.746,334.000 296.244 C 334.000 295.742,335.688 292.894,337.750 289.915 C 341.632 284.308,345.249 277.341,346.531 273.000 C 346.937 271.625,347.578 270.275,347.955 270.000 C 350.609 268.065,356.443 248.483,358.085 236.000 C 358.772 230.775,359.709 226.072,360.167 225.550 C 361.203 224.369,361.281 187.613,360.250 186.587 C 359.837 186.176,358.754 180.814,357.843 174.670 C 355.986 162.156,354.113 154.899,351.065 148.416 C 349.929 145.999,349.000 143.567,349.000 143.011 C 349.000 142.455,348.586 142.000,348.079 142.000 C 347.573 142.000,346.849 140.589,346.470 138.865 C 345.677 135.255,341.242 126.099,339.388 124.245 C 338.697 123.554,337.846 122.091,337.498 120.994 C 337.150 119.897,336.476 119.000,336.000 119.000 C 335.524 119.000,334.823 117.987,334.443 116.750 C 333.698 114.329,319.436 96.394,314.500 91.671 C 303.368 81.019,283.970 66.027,281.294 66.008 C 280.631 66.004,278.431 64.875,276.405 63.500 C 274.379 62.125,272.109 61.000,271.360 61.000 C 270.612 61.000,270.000 60.550,270.000 60.000 C 270.000 59.450,269.563 59.000,269.030 59.000 C 268.496 59.000,265.683 57.915,262.780 56.589 C 259.876 55.263,255.813 53.863,253.750 53.478 C 251.688 53.093,250.000 52.439,250.000 52.025 C 250.000 51.612,247.188 50.694,243.750 49.987 C 240.313 49.279,237.042 48.349,236.482 47.920 C 235.922 47.491,231.422 46.636,226.482 46.019 C 221.542 45.403,215.062 44.471,212.083 43.949 C 205.776 42.844,191.482 42.887,185.000 44.030 M226.500 65.463 C 338.144 88.807,380.640 224.713,301.556 305.499 C 211.702 397.284,56.500 334.269,56.500 206.000 C 56.500 115.837,139.451 47.263,226.500 65.463 M171.277 122.931 C 166.786 125.727,166.832 125.214,167.212 168.575 L 167.554 207.500 170.179 215.278 C 184.340 257.221,231.217 276.998,270.500 257.602 C 330.489 227.983,320.929 140.489,255.832 123.348 C 245.085 120.518,175.700 120.176,171.277 122.931 M251.947 137.549 C 290.809 146.709,308.426 191.636,286.319 225.208 C 259.836 265.427,198.461 256.030,183.718 209.500 C 181.623 202.890,181.500 200.756,181.500 171.163 L 181.500 139.826 183.861 137.913 C 187.067 135.315,241.240 135.026,251.947 137.549 M190.635 144.073 C 184.683 148.754,186.368 152.735,200.250 166.783 C 215.599 182.315,218.581 183.906,223.923 179.411 C 229.778 174.485,228.740 172.055,214.709 157.850 C 197.764 140.694,196.123 139.755,190.635 144.073 M111.174 279.314 C 108.191 282.490,108.115 290.673,111.039 293.811 C 112.807 295.709,114.137 296.000,121.039 296.000 C 132.451 296.000,130.939 297.871,119.250 298.214 L 109.500 298.500 109.500 302.500 L 109.500 306.500 121.901 306.782 C 137.209 307.130,139.000 306.139,139.000 297.326 C 139.000 289.404,137.181 288.000,126.917 288.000 C 114.568 288.000,116.657 285.589,129.331 285.214 L 139.000 284.928 139.000 280.964 L 139.000 277.000 126.174 277.000 C 114.061 277.000,113.228 277.129,111.174 279.314 M143.000 290.000 C 143.000 307.497,142.487 307.000,160.545 307.000 C 179.021 307.000,179.000 307.020,179.000 289.488 L 179.000 276.885 174.750 277.193 L 170.500 277.500 170.000 287.500 C 169.528 296.933,169.372 297.518,167.250 297.820 C 165.038 298.134,165.000 297.961,165.000 287.512 L 165.000 276.885 160.750 277.193 L 156.500 277.500 156.215 287.750 C 155.959 296.970,155.743 298.000,154.072 298.000 C 151.477 298.000,151.000 296.124,151.000 285.918 L 151.000 277.000 147.000 277.000 L 143.000 277.000 143.000 290.000 M182.438 278.300 C 182.164 279.016,182.065 285.653,182.220 293.050 L 182.500 306.500 186.750 306.807 L 191.000 307.115 191.000 292.057 L 191.000 277.000 186.969 277.000 C 184.583 277.000,182.734 277.531,182.438 278.300 M194.400 278.400 C 193.104 281.778,194.424 284.493,197.500 284.774 C 205.241 285.482,204.901 284.976,205.215 296.260 L 205.500 306.500 209.500 306.500 L 213.500 306.500 214.000 296.000 L 214.500 285.500 219.807 285.196 L 225.114 284.892 224.807 281.196 L 224.500 277.500 209.729 277.223 C 197.548 276.995,194.860 277.201,194.400 278.400 M230.073 279.635 C 228.292 281.898,228.000 283.668,228.000 292.180 C 228.000 306.475,228.620 307.000,245.512 307.000 L 258.115 307.000 257.807 302.750 L 257.500 298.500 247.500 298.000 L 237.500 297.500 237.204 291.879 C 236.851 285.169,237.096 285.035,249.750 285.014 L 258.000 285.000 258.000 281.000 L 258.000 277.000 245.073 277.000 C 232.298 277.000,232.121 277.031,230.073 279.635 M262.000 292.000 L 262.000 307.000 266.000 307.000 L 270.000 307.000 270.015 302.750 C 270.038 296.565,270.826 295.836,277.095 296.192 L 282.500 296.500 283.000 301.500 L 283.500 306.500 287.500 306.500 L 291.500 306.500 291.777 291.750 L 292.053 277.000 287.579 277.000 L 283.105 277.000 282.802 282.250 L 282.500 287.500 277.095 287.808 C 270.826 288.164,270.038 287.435,270.015 281.250 L 270.000 277.000 266.000 277.000 L 262.000 277.000 262.000 292.000 " stroke="none" fill-rule="evenodd"></path>
<animateTransform attributeName="transform" type="rotate" from="360 0 0" to="0 0 0" dur="1s" repeatCount="indefinite" />
</g>
</svg>